<svg version="1.1" id="Layer_1" xmlns="http://www.w3.org/2000/svg" xmlns:xlink="http://www.w3.org/1999/xlink" x="0px" y="0px"
                                    viewBox="0 0 79.8 67.5" style="enable-background:new 0 0 79.8 67.5;" xml:space="preserve">
                        <style type="text/css">
                            .st0{fill-rule:evenodd;clip-rule:evenodd;}
                        </style>
                                                    <g>
                                                        <path class="st0" d="M79.7,47c0-0.3-0.3-0.6-0.5-0.8c-1.2-1.4-2.6-2.5-4.5-2.6c-0.3,0-0.5-0.1-0.8-0.2c-0.5-0.1-1-0.2-1.5-0.1
                        c-1.9,0.2-3.8,0.5-6,0.9c-0.1-0.2-0.3-0.5-0.4-0.8c-0.3-1.2-0.7-2.3-0.9-3.5c-0.5-2.1-1-4.2-1.8-6.2c-0.8-1.8-1.4-3.7-2.2-5.5
                        c-1-2.4-2.1-4.8-3.1-7.2c-0.2-0.5-0.4-0.9-0.6-1.4c-0.6-1.7-1.2-3.3-1.9-5c-0.5-1.2-1.1-2.3-1.6-3.4c-1.1-2.2-2.1-4.4-3.3-6.5
                        c-0.8-1.5-1.9-2.8-3.4-3.6c-2.3-1.4-4.6-1.1-6.9-0.2c-1.2,0.5-2.3,1.2-3.3,2c-0.9,0.7-1.7,1.6-2.3,2.5C33.3,7,32.2,8.9,31,10.7
                        c-0.5,0.8-1,1.5-1.5,2.3c-1,1.9-2,3.9-3,5.7c-1.1,1.8-1.9,3.7-2.8,5.6c-0.3,0.8-0.7,1.6-1.1,2.4c-1.9,3.2-3.5,6.6-5,10.1
                        c-0.7,1.7-1.7,3.4-2.6,5.1c-1.6-0.3-3.1-0.6-4.6-1c-0.7-0.2-1.4-0.5-2.2-0.7c-1.4-0.4-2.9-0.8-4.4-0.5c-0.8,0.1-1.5,0.5-2.1,1.1
                        C0.4,42.5,0,44.5,0,46.6c0,0.2,0.1,0.4,0.2,0.5c0.3,0.8,0.7,1.5,1.1,2.3c0.6,1.2,1.1,2.4,1.8,3.5c0.6,0.9,1.4,1.6,2.1,2.3
                        c1.4,1.3,2.9,2.6,4.4,3.8c1.1,0.8,2.3,1.5,3.5,2.2c0.7,0.4,1.6,0.8,2.4,1.1c0.4,0.2,0.8,0.3,1.2,0.5c2.6,1.3,5.3,2.1,8.1,2.7
                        c1.6,0.3,3.2,0.5,4.9,0.7c2,0.3,4,0.5,6,0.7c2.2,0.2,4.4,0.2,6.6,0.4c3,0.2,6,0.1,9-0.1c4.6-0.5,9.2-1.5,13.6-3.1
                        c2.5-0.9,5-1.9,7.1-3.5c0.4-0.3,0.8-0.7,1.2-1.1c0.4-0.4,0.8-0.9,1.2-1.3c1.2-1.3,2.4-2.5,3.6-3.8C80,52.3,80,49.7,79.7,47z
                        M58.5,42.4c0.8-0.6,1.3-1.5,2-2.3c0.3-0.3,0.5-0.7,0.9-1.2c0.2,0.3,0.3,0.5,0.4,0.7c0.4,1.2,0.8,2.4,1.1,3.6
                        c0.1,0.5,0.2,1.1,0.3,1.7c-2.4,0.3-4.6,1.3-7.2,0.7C56.9,44.4,57.4,43.2,58.5,42.4z M51.9,19.6c0.4-0.2,0.8-0.6,1.2-0.2
                        c0.3,0.3,0.4,0.7,0.6,1.1c-0.1,1.3-0.9,2-1.8,2.6c-0.6,0.4-1.3,0-1.4-0.8C50.6,21.2,50.9,20.3,51.9,19.6z M45.9,4.1
                        C44.8,4,43.7,4,42.6,3.9C43.5,3.2,45,3.2,45.9,4.1z M39.6,5.9c2.4,0,4.8,0,7.2-0.1c1.1,0,1.6,0.4,2,1.4c-1.1,0.4-8.7-0.5-10-1.1
                        C39.1,6,39.4,5.9,39.6,5.9z M38.1,8.3c2.4,0.3,4.7,0.6,7.1,0.9c1.2,0.1,2.3,0.2,3.5,0.3c0.8,0.1,0.9,0.2,1.4,1.1
                        c-4.7-0.4-9.2-0.6-13.7-1.3C36.9,8.2,37,8.1,38.1,8.3z M36.3,11.3c4.6,0.4,9.2,0.8,13.8,1.2c0.2,0,0.3,0,0.4,0.1
                        c0.2,0.1,0.6,0.3,0.6,0.5c0,0.2-0.2,0.6-0.4,0.7c-0.6,0.3-1.2,0.6-1.8,0.9c-0.6,0.3-1.1,0.6-1.8,0.9c-0.6-0.7-1.2-1.3-1.6-2
                        c-0.7-1.1-1.6-1.4-2.8-0.8c-0.5,0.2-0.9,0.5-1.4,0.7C40.2,14,39,14.6,37.8,15c-1,0.4-1,0.3-1.7-0.5c-0.5-0.7-1.1-1.4-1.7-2.1
                        C34.9,11.2,35,11.2,36.3,11.3z M44.8,20.7c-0.3,0.6-0.5,1.2-0.8,1.7c-0.4,0.6-1,0.6-1.6,0.5c-0.6-0.1-0.7-0.6-0.8-1.1
                        c0-0.4-0.1-0.9,0-1.3c0.2-1.2,1-1.7,2.2-1.4c0.3,0.1,0.6,0.4,0.8,0.7c0.1,0.2,0.1,0.6,0.1,0.9C44.8,20.6,44.8,20.6,44.8,20.7z
                        M34.1,17.7c0.5,0.2,0.8,0.5,0.6,1.1c-0.1,0.1,0,0.3,0,0.4c0.3,0.7-0.1,1.2-0.6,1.6c-0.3,0.2-0.7,0.2-1,0.3
                        c-0.1-0.3-0.2-0.6-0.2-0.9C32.8,19,33.2,18.4,34.1,17.7z M27.6,23.9c0.5-0.7,0.9-1.5,1.5-2.3c0.2,0.2,0.5,0.4,0.6,0.6
                        c0.9,1.2,1.8,2.3,2.7,3.5c0.2,0.2,0.2,0.5,0.4,0.7c0.2,0.3,0.4,0.6,0.7,0.9c0.5,0.4,0.9,0.3,1.3-0.2c0.8-1.1,1.6-2.1,2.4-3.2
                        c0.3-0.3,0.6-0.6,1-1c0.9,1.2,1.8,2.3,2.6,3.4c0.6,0.8,1.2,1.5,1.8,2.2c0.7,0.9,1.2,0.9,1.9,0c0.8-1.1,1.5-2.3,2.3-3.4
                        c0.2-0.3,0.5-0.6,0.8-1c0.3,0.3,0.5,0.6,0.7,0.8c1.2,1.5,2.3,2.9,3.5,4.4c0.3,0.3,0.5,0.7,1,0.5c0.5-0.2,1-0.3,1.1-1
                        c0-0.2,0.1-0.4,0.1-0.5c0.5-0.9,1.1-1.8,1.7-2.8c0.7,0.7,0.8,1.7,1.2,2.5c0.1,0.1,0,0.4-0.1,0.5c-0.5,1.3-1.3,2.6-2.2,3.7
                        c-0.6,0.7-1.2,1.5-2,2.4c-0.8-1-1.5-1.8-2.1-2.7c-0.4-0.6-0.7-1.3-1.1-2c-0.2-0.4-0.6-0.7-0.9-0.9c-1-0.6-1.4-0.4-1.9,0.7
                        c-0.4,1.1-1.7,2.8-2.6,3.6c-1.2-1.2-2.4-2.4-3.5-3.7c-0.3-0.4-0.5-0.8-0.8-1.3c-0.2-0.3-0.4-0.7-0.6-1c-0.6-0.8-1.1-0.7-1.7,0.1
                        c-1.2,1.7-2.6,3.2-4.4,4.4C32.7,32,32.6,32,32.4,32c-0.8-1.1-1.6-2.3-2.5-3.4c-0.6-0.8-1.2-1.5-1.8-2.2c-0.2-0.2-0.4-0.4-0.5-0.6
                        C27,24.9,27,24.9,27.6,23.9z M52.9,45.8c-2.3,0.1-4.6,0.5-7,0c0.1-1,1.1-1.4,1.6-2.1c0.5-0.7,1.3-1.3,2-2
                        C51,42.8,51.9,44.3,52.9,45.8z M21.6,36.1c1.1,0.5,1.8,1.3,2.6,1.9c1.4,1.1,2.8,2.1,4.2,3.2c1,0.8,1.9,1.6,2.8,2.4
                        c1.2,1,1.8,1,2.8-0.3c0.2-0.2,0.3-0.5,0.5-0.6c1-0.6,1.7-1.6,2.4-2.4c0.8-0.9,1.1-0.9,1.9-0.1c1.3,1.5,2.5,2.9,3.8,4.4
                        c0.3,0.3,0.4,0.7,0.6,1.1c0,0.1-0.1,0.2-0.1,0.3C35,44.8,27,44.2,19,42.7C19.6,40.4,20.6,38.3,21.6,36.1z M76.9,48.9
                        c-0.1,1.3-0.6,2.4-1.5,3.4c-1.3,1.3-2.6,2.7-4,3.9c-0.7,0.7-1.6,1.1-2.5,1.6c-1.4,0.9-2.8,1.8-4.3,2.5c-2,1-4,2.1-6.4,2.3
                        c-1.3,0.1-2.6,0.4-3.8,0.7c-2.7,0.8-5.4,1.1-7.2,0.9c-3.8-0.2-6.6-0.2-9.4-0.5c-3.3-0.3-6.5-1-9.7-2c-2-0.6-4.1-1.2-6.1-1.9
                        c-2.2-0.8-4.5-1.5-6.4-2.9c-0.6-0.5-1.4-0.8-2.1-1.2c-2.5-1.5-4.5-3.5-6.4-5.6c-0.9-1-1.6-2.2-2.2-3.4c-0.3-0.5-0.3-1.2-0.2-1.8
                        c0.1-1,0.8-1.7,1.9-1.8c1.2-0.1,2.5-0.1,3.7,0.2c2.5,0.7,5,1.2,7.5,1.8c0.3,0.1,0.5,0.1,0.8,0.1c3.4,0.4,6.9,0.9,10.3,1.3
                        c2.9,0.4,5.9,0.8,8.8,1.1c2,0.2,4,0.5,6,0.6c1.9,0.1,3.9,0.1,5.8,0.1c0.5,0,1-0.1,1.4,0.1c1,0.4,2,0.1,3,0.1c0.3,0,0.6-0.1,0.9-0.1
                        c2.4-0.2,4.9-0.4,7.3-0.6c0.3,0,0.6-0.1,0.9-0.1c1.4-0.4,2.9-0.6,4.4-0.6c1.2,0,2.5-0.3,3.7-0.4c1.8-0.1,3.5,0.4,5.1,0.9
                        C76.9,47.8,76.9,48.4,76.9,48.9z"/>
                                                        <path class="st0" d="M72.4,48.2c-1,0-2.5,1.5-2.5,2.6c0,1.4,1,1.8,2.5,1.9c1.2,0.1,1.9-0.7,1.9-2C74.3,49.7,73.2,48.2,72.4,48.2z"
                                                        />
                                                        <path class="st0" d="M58.6,50.3c-1.6,0-2.3,0.7-2.4,2.5c0,0.8,1,1.8,2,1.9c1.1,0,2.2-1.1,2.3-2.2C60.6,51.4,59.5,50.3,58.6,50.3z"
                                                        />
                                                        <path class="st0" d="M13.3,47c-1,0-2.3,1.6-2.3,2.6c0,0.9,1.1,1.7,2.2,1.6c1,0,2.1-1.2,2.1-2.3C15.4,48,14.3,46.9,13.3,47z"/>
                                                        <path class="st0" d="M20.4,49c-0.9-1.1-2.2-1-2.9,0.2c-0.2,0.3-0.3,0.7-0.4,1c-0.2,1.2,0.7,2.3,1.9,2.3c1.7,0,2.6-1.3,1.8-2.9
                        C20.7,49.4,20.6,49.2,20.4,49z"/>
                                                        <path class="st0" d="M25.3,48.8c-1,0-2.1,1.1-2.1,2.1c0,1.1,1,2.1,2.1,2.1c1.1,0,2-0.7,2-1.6C27.4,50.1,26.4,48.8,25.3,48.8z"/>
                                                        <path class="st0" d="M32.5,49.1c-0.7-0.2-1.8,0.5-2.2,1.5c-0.1,0.3-0.3,0.6-0.3,0.9c0,0.3,0.1,0.7,0.3,0.9c0.6,0.5,1.3,0.9,2.2,0.8
                        c0.9-0.1,1.5-0.8,1.6-1.7C34,50.6,33.2,49.3,32.5,49.1z"/>
                                                        <path class="st0" d="M66.3,50.2c-0.4-0.6-1-0.7-1.6-0.5c-1.1,0.3-1.7,2.1-1.2,3.1c0.4,0.8,1.1,0.9,1.8,0.9c1.5,0,2.1-0.8,1.6-2.2
                        C66.8,51,66.5,50.6,66.3,50.2z"/>
                                                        <path class="st0" d="M38.7,50c-1.1,0-1.8,0.8-1.8,2.1c0,1.1,0.7,2,1.6,2c1,0.1,2.2-0.9,2.2-1.8C40.8,51.4,39.6,50,38.7,50z"/>
                                                        <path class="st0" d="M7.7,45c-0.9,0-1.7,1.1-1.8,2.4c0,0.8,0.7,1.6,1.6,1.7c1.1,0,1.9-0.7,1.9-1.7C9.4,46.2,8.5,45,7.7,45z"/>
                                                        <path class="st0" d="M45.6,50.3c-0.9,0-1.8,1-1.8,2.2c0,0.8,0.7,1.4,1.8,1.4c1.3,0,1.9-0.5,1.9-1.5C47.5,51.4,46.5,50.4,45.6,50.3z
                        "/>
                                                        <path class="st0" d="M52.5,50.8c-0.3-0.1-0.7-0.1-1,0c-0.8,0.3-1.1,0.9-1.3,1.7c-0.2,1.2,0.3,1.9,1.5,1.9c0.9,0,1.7-0.5,1.9-1.2
                        C53.7,52.6,53.1,51,52.5,50.8z"/>
                                                    </g>
                    </svg>
