<?xml version="1.0" encoding="utf-8"?>
<!-- Generator: Adobe Illustrator 24.1.2, SVG Export Plug-In . SVG Version: 6.00 Build 0)  -->
<svg version="1.1" id="Layer_1" xmlns="http://www.w3.org/2000/svg" xmlns:xlink="http://www.w3.org/1999/xlink" x="0px" y="0px"
	 viewBox="0 0 110.8 58.6" style="enable-background:new 0 0 110.8 58.6;" xml:space="preserve">
<path d="M108.6,42.1c-0.3-0.2-0.7-0.4-1-0.5c-0.1-0.4-0.2-0.7-0.3-1.1c0-0.1-0.3-0.2-0.4-0.2c-0.3,0.2-0.7,0.3-1,0.6
	c-0.6,0.5-1.3,0.9-2,1.3c-0.2,0.1-0.4,0.3-0.6,0.4c-0.8,0.6-1.6,1.3-2.5,1.9c-0.4,0.3-0.9,0.6-1.3,0.9c-1.6,1.2-3.2,2.5-4.9,3.7
	c-0.7,0.7-1.6,1.1-2.3,1.7c-0.3,0.3-0.7,0.5-1,0.7c-0.5,0.3-1,0.6-1.4,1c-0.2,0.2-0.5,0.4-0.8,0.5c-0.8,0.4-1.6,0.9-2.3,1.5
	c-0.3,0.3-0.6,0.5-1,0.7c-0.5,0.2-0.9,0.5-1.3,0.8c-0.1,0.1-0.2,0.2-0.3,0.2c-1.2,0.7-2.3,1.6-3.6,2.2c-0.6,0.3-1.2,0.3-1.8,0.1
	c-0.2-0.1-0.4-0.2-0.6-0.4c-0.3-0.4-0.5-0.7-0.6-1.2c0-0.2-0.1-0.5-0.2-0.7c0-0.2,0-0.3,0-0.5c0.2-0.8,0.4-1.5,0.7-2.3
	c0.1-0.2,0.3-0.4,0.5-0.6c0.9-0.4,1.4-1.3,2.2-1.8l0.1-0.1c0.5-0.9,1.4-1.4,2.2-2c0.8-0.6,1.6-1.2,2.4-1.8c0.5-0.4,1-0.7,1.5-1.1
	c0.5-0.4,1-0.7,1.5-1.1c0.3-0.3,0.7-0.5,0.8-0.9c0.1-0.3,0.3-0.5,0.6-0.7c0.1-0.1,0.1-0.1,0.2-0.2c0.5-0.4,1.1-0.8,1.6-1.2
	s0.9-0.9,1.4-1.3c0.3-0.3,0.6-0.6,0.8-0.9c-0.4-0.2-0.8-0.3-1.3-0.2c-0.2,0.1-0.5,0-0.7,0c-0.7,0-1.3-0.1-2,0c-0.1,0-0.2,0-0.2,0
	c-1.1-0.3-2.2-0.1-3.3-0.2c-0.2,0-0.5,0-0.7,0.1c-0.2,0-0.4,0.1-0.6,0c-0.5-0.2-1.1-0.1-1.6-0.1c-0.3,0-0.7,0-1,0
	c-0.8-0.1-1.6-0.1-2.5,0.1c-0.4,0.1-0.8,0-1.2,0c-1.1-0.1-2.2-0.1-3.2-0.1c-0.1,0-0.3,0-0.4,0c-0.4,0.2-0.9,0.1-1.4,0.1
	c-0.4,0-0.7-0.1-1.1,0c-0.1,0-0.2,0-0.4,0c-1.2-0.2-2.3,0-3.4,0.2c-0.5,0.1-1,0.2-1.5,0.1c-0.3-0.1-0.6,0-0.9,0
	c-0.4,0.1-0.8,0.1-1.2,0.1c-0.2,0-0.3,0-0.5-0.1c-0.6-0.3-1.3-0.2-1.9-0.1c-0.5,0.1-0.9,0.1-1.4,0.1c-0.7-0.1-1.3,0-2,0.2
	c-0.4,0.2-30.8,0.2-31.2,0c-0.3-0.1-0.6-0.1-1,0c-0.7,0.2-1.5,0.2-2.2,0.2c-1.2,0-2.3,0.1-3.5,0c-0.4,0-0.7-0.1-1.1-0.1
	c-0.3,0-0.7,0.1-1,0.1c-0.8,0-1.6,0-2.4,0c-0.5,0-1,0-1.5,0.1c-0.9,0.1-1.9,0.2-2.8,0.1c-0.5-0.1-1.1,0-1.6,0c-0.8,0-1.7,0-2.5-0.1
	c-0.6,0-1.2-0.1-1.9-0.1c-0.3,0-0.7,0-1,0.1c-0.3,0-0.6,0.2-0.8,0.5c-0.1,0.2-0.2,0.4-0.4,0.4C4.3,41,4.3,40.6,4,40.6
	c-0.4-0.3-0.7-0.7-0.9-1.2c-0.1-0.3-0.2-0.6-0.3-0.9c-0.1-0.3-0.1-0.7-0.2-1s-0.3-0.6-0.3-0.9c0-0.3-0.2-0.5-0.5-0.7
	c-0.1-0.1-0.3-0.2-0.3-0.3c-0.5-0.8-1-1.5-1.4-2.3C-0.1,33-0.1,33,0.3,32.6c0,0,0-0.1,0.1-0.1c0-0.1-0.1-0.3-0.2-0.4
	c-0.1-0.2,0-0.3,0.1-0.5c0.1-0.1,0.1-0.3,0-0.5c-0.2-0.4-0.1-0.7,0.1-1c0.4-0.6,0.9-0.9,1.6-0.8c0.2,0,0.5,0.1,0.7,0.1
	c0.9,0.2,1.7,0.3,2.6,0.2c0.2,0,0.3,0,0.5,0c1.7,0.1,3.4,0.1,5.1,0c0.8,0,1.7,0.2,2.5,0.1c0.8,0,1.6-0.1,2.4-0.1s1.7,0.1,2.5,0.1
	c1.5,0,3.1,0.1,4.6,0.2c0.8,0,1.6,0.1,2.5,0.1c0.8,0,1.6,0.1,2.4,0c0.2,0,30.5,0,30.7,0c1.2,0.3,2.4,0.1,3.6,0.1
	c0.8,0,1.6-0.1,2.4,0c0.2,0,0.3,0,0.5,0c1.8-0.2,3.6-0.1,5.5-0.1c1.3,0,2.6-0.1,4-0.1c0.2,0,0.3-0.1,0.5,0c0.7,0.2,1.5,0,2.2,0
	c1.3-0.1,2.6,0,4,0c1.1,0,2.2,0.1,3.4,0c0.4,0,0.8,0,1.2,0c0.5,0.1,1,0,1.5,0c0.8,0,1.6-0.1,2.4-0.1c0.6,0,1.2-0.1,1.7-0.1
	c0.3,0,0.7-0.1,1-0.1c0.1,0,0.2,0,0.3-0.2c0-0.1,0-0.3-0.2-0.4c-0.2-0.2-0.5-0.3-0.7-0.5c-0.3-0.2-0.6-0.4-0.9-0.7
	c-0.6-0.5-1.1-1.1-1.8-1.5c-0.4-0.3-0.8-0.7-1.1-1.1c-0.6-0.8-1.4-1.6-1.9-2.4c-0.2-0.2-0.4-0.4-0.6-0.6c-0.9-0.9-1.9-1.9-2.8-2.8
	c-0.3-0.3-0.5-0.5-0.7-0.8c-0.2-0.3-0.5-0.7-0.8-0.9c-0.3-0.3-0.5-0.7-0.7-1c-0.1-0.2-0.3-0.4-0.5-0.6c-0.8-0.5-1.4-1.2-1.8-2
	c-0.1-0.2-0.3-0.4-0.4-0.6c-0.4-0.5-0.8-0.9-1.2-1.4c-0.5-0.6-1.1-1.2-1.3-2.1c0-0.2-0.2-0.3-0.3-0.4c0-0.1-0.1-0.1-0.2-0.2
	c-0.4-0.3-0.8-0.7-1-1.1c-0.3-0.4-0.4-0.8-0.6-1.2c-0.3-0.7-0.4-1.4,0.1-2c0.1-0.1,0.2-0.3,0.2-0.4c0-0.4,0.4-0.7,0.5-1.1
	c0.1-0.9,0.3-1.7,0.2-2.6c0-0.3,0.1-0.5,0.3-0.7c0.2-0.2,0.5-0.2,0.7,0c-0.5,0.1-0.5,0.2-0.4,0.3c0.1,0.2,0.3,0.4,0.5,0.3
	c0.2-0.1,0.1-0.3,0.1-0.4c0-0.3,0.3-0.5,0.5-0.5c0.2,0,0.5,0.1,0.7,0.3l0.1,0.1c0.4,0.4,0.8,0.7,1.2,1.1s0.8,0.7,1.3,1
	c0.5,0.4,1.1,0.7,1.5,1.3c0,0.2,0.2,0.3,0.3,0.4c0.6,0.5,1.1,1,1.5,1.6c0,0.1,0.1,0.2,0.1,0.2c0.6,0.6,1.2,1.3,1.8,1.9
	c0.8,0.8,1.6,1.7,2.4,2.5c0.5,0.5,0.9,1.1,1.5,1.4c0.3,0.2,0.5,0.4,0.8,0.6c0.8,0.9,1.8,1.6,2.8,2.2c0.9,0.9,2,1.5,2.8,2.4
	c0.3,0.4,0.7,0.7,1.1,1c0.1,0.1,0.3,0.2,0.4,0.3c0.4,0.6,1,1,1.5,1.5s0.9,1,1.4,1.4c0.6,0.6,1.3,1.2,1.8,1.9c0.3,0.4,0.6,0.6,1,0.9
	c0.8,0.6,1.6,1.3,2.3,2.1c0.1,0.1,0.2,0.2,0.2,0.3c0.3,0.3,0.6,0.6,0.9,0.9c0.3,0.3,0.5,0.6,0.8,0.9c0.3,0.1,0.6,0.1,0.9,0.2
	c0.6,0.2,1.1,0.5,1.5,1c0.3,0.4,0.6,0.7,0.9,1.1c0.3,0.5,0.5,1.1,0.7,1.7c0.1,0.2,0,0.5,0.1,0.7c0,0.2,0,0.4,0.1,0.6
	c0.3,0.7,0.4,0.7,0.3,1.5v0.1c-0.1,0.5,0.2,0.9,0.1,1.3c-0.1,0.4,0,0.8,0.1,1.2c-0.1,0.6-0.1,0.7-0.1,0.9c-0.1,0.8-0.3,1.5-0.6,2.3
	c-0.2,0.5-0.5,0.9-0.9,1.1C109,42,108.8,42.1,108.6,42.1z M18.9,35.3c-0.2,0.1-0.4,0.2-0.7,0.2c-0.3,0.1-0.6,0.1-0.9,0.1
	c-0.1,0-0.2,0-0.2,0.1c-0.3,0.2-0.6,0.2-1,0.2c-0.5,0-0.9,0-1.3,0c-0.1-0.1-0.1-0.1-0.2-0.2c0,0,0-0.1-0.1-0.1
	c-0.1-0.1-0.3-0.1-0.4,0.1v0.1c-0.1,0.4-0.2,0.4-0.5,0.4c-0.2,0-0.4-0.1-0.6-0.1s-0.4,0-0.6,0.2c-0.1,0.2-0.3,0.2-0.4,0.5
	c0.1,0,0.1,0.1,0.2,0.1c0.5-0.1,1.1,0.1,1.5-0.3c0.1,0,0.3,0,0.3,0.1c0.3,0.3,0.7,0.3,1,0.3c0.6,0,1.2,0,1.9,0c0.7,0,1.4,0,2.1,0.2
	c0.2,0,0.3,0.1,0.5,0.1c0.7,0,1.4,0,2.1-0.1c0.7,0,1.3-0.1,2-0.1c0.9,0.2,1.9,0,2.8,0.2c0.8,0.1,31.6-0.1,32.5-0.1
	c0.3,0,0.5-0.2,0.5-0.6c0-0.3,0.3-0.1,0.5-0.2l0.1-0.1v-0.1c-0.3-0.1-0.5-0.3-0.8-0.4C58.6,36,28,36.1,27.4,36.1
	c-0.3,0-0.5-0.1-0.7-0.3c-0.1-0.1-0.2-0.1-0.3-0.2c-0.2,0.1-0.5,0.2-0.7,0.3c-0.2-0.2-0.3-0.3-0.5-0.4c-0.5,0.3-1,0.3-1.5,0.3
	s-1.1,0-1.6-0.1c-0.4,0-0.7,0-1.1,0.1c-0.1,0-0.2,0-0.2,0.1c-0.1,0-0.2,0-0.2,0c-0.3,0-0.3,0.1-0.1,0.4c0,0.1,0.1,0.2,0.1,0.2
	c0,0.1-0.1,0.1-0.2,0.1c-0.4,0-0.8,0-1.2,0h-0.1v-0.1c0.2-0.1,0.3-0.2,0.5-0.4c0,0,0.1-0.2,0-0.2C19.4,35.8,19.2,35.5,18.9,35.3z
	 M25.8,38.7c0.5,0,0.9,0,1.2,0c0.7,0,31.3,0,32,0c0.5,0,1.1,0,1.6,0c0.4,0,0.7,0,1.1,0c0.6,0,1.2-0.1,1.9,0c0.2,0,0.3,0,0.5-0.1
	l0.1-0.1c0-0.1-0.1-0.2-0.1-0.2c-0.2,0-0.3-0.1-0.5-0.1c-1-0.1-2.1-0.2-3.1-0.3c-0.2,0-0.3,0-0.5,0c-1,0-32.1,0-33.1,0
	c-0.4,0-0.8,0-1.2,0c-0.7,0-1.3,0-2-0.1c-0.5,0-1.1,0-1.6,0.1c-0.7,0.1-1.5,0.2-2.2,0.1c-0.6,0-1.2,0.1-1.8,0.3
	c-0.1,0-0.1,0.1-0.1,0.2l0.1,0.1c0.2,0,0.5,0.1,0.7,0.1c0.9,0,1.8,0,2.7,0c0.6,0,1.2,0,1.7,0C24.1,38.7,25,38.7,25.8,38.7z
	 M69.5,36.6c-0.3-0.1-0.6-0.2-0.8-0.3c-0.2-0.1-0.5-0.1-0.7-0.1c-1.3,0-2.6-0.1-3.8,0.1c-0.1,0-0.2,0-0.2,0.1
	c-0.1,0-0.2,0.2-0.2,0.3s0.1,0.2,0.2,0.3c0.2,0,0.3,0.1,0.5,0.1c1.5,0,3.1,0,4.6-0.1C69.2,36.8,69.3,36.8,69.5,36.6z M61.4,36.6
	c0.1,0,0.2-0.1,0.3-0.1c0.1-0.1,0.2-0.2,0.2-0.3S61.8,36,61.7,36c-0.2-0.1-0.5,0-0.7,0.1c-0.1,0-0.1,0.1-0.1,0.2
	c0,0.1,0.1,0.2,0.2,0.3C61.2,36.6,61.3,36.6,61.4,36.6z M10.4,36.3c-0.2,0-0.3,0-0.4,0c0,0-0.1,0.1-0.1,0.2c0,0.1,0.2,0.2,0.3,0.1
	C10.2,36.6,10.3,36.5,10.4,36.3z M8.8,37C8.9,37,9,37,8.8,37C8.9,36.9,8.9,36.9,8.8,37C8.8,36.9,8.8,37,8.8,37z M63,36.2
	C63,36.2,62.9,36.2,63,36.2c-0.1,0.1,0,0.2,0,0.2c0.1,0,0.1,0,0.2,0v-0.1C63.2,36.2,63.1,36.2,63,36.2z M62.6,36.8
	C62.5,36.8,62.5,36.8,62.6,36.8C62.5,36.8,62.5,36.9,62.6,36.8C62.6,36.9,62.6,36.8,62.6,36.8L62.6,36.8z"/>
</svg>
