<?xml version="1.0" encoding="utf-8"?>
<!-- Generator: Adobe Illustrator 24.1.2, SVG Export Plug-In . SVG Version: 6.00 Build 0)  -->
<svg version="1.1" id="Layer_1" xmlns="http://www.w3.org/2000/svg" xmlns:xlink="http://www.w3.org/1999/xlink" x="0px" y="0px"
	 viewBox="0 0 50.1 41" style="enable-background:new 0 0 50.1 41;" xml:space="preserve">
<g>
	<path d="M33.9,9.6l2-7.8c0.2-0.8-0.3-1.6-1.1-1.8C34-0.2,33.2,0.3,33,1.1l-2,7.8c-0.2,0.8,0.3,1.6,1.1,1.8S33.7,10.4,33.9,9.6z"/>
	<path d="M45.3,9.7l-7,4c-0.7,0.4-1,1.3-0.6,2c0.4,0.7,1.3,1,2,0.6l7-4c0.7-0.4,1-1.3,0.6-2S46.1,9.3,45.3,9.7z"/>
	<path d="M22.2,6.9c-2.8,4.9-6.1,9.4-9.8,13.5c-3.7,4.1-7.6,7.4-11.7,10c-0.7,0.4-0.9,1.3-0.5,2l4.4,7.8c0.4,0.7,1.2,1,1.9,0.6
		C8,40.2,9.5,39.6,11,39c0.1,0.2,0.2,0.3,0.3,0.5l9.2-3.4l0.7-0.2c5-1,10.5-1.5,16.6-1.5c1.2,0,1.9-1.2,1.3-2.2L24.8,7
		C24.3,5.9,22.8,5.9,22.2,6.9z M6.6,37.6l-3.1-5.4c0.7-0.5,1.4-1,2-1.5l3.3,5.9C8.1,36.9,7.3,37.2,6.6,37.6z M14.1,38.1l-0.2-0.2
		l0,0c1.2-0.4,2.4-0.8,3.6-1.1L14.1,38.1z M35.3,31.4C30,31.6,25.1,32.1,20.6,33c-3,0.6-6,1.5-8.9,2.5l-3.8-6.7
		c2.3-1.9,4.5-4,6.7-6.4c3.3-3.6,6.3-7.5,8.9-11.8L35.3,31.4z"/>
	<path d="M41.4,22.8l-0.1,0c-0.7-0.1-1.5,0.3-1.7,1c-0.2,0.8,0.2,1.6,1,1.9l7.7,2.3l0.1,0c0.7,0.1,1.5-0.3,1.7-1
		c0.2-0.8-0.2-1.6-1-1.9L41.4,22.8z"/>
</g>
</svg>
