<?xml version="1.0" encoding="utf-8"?>
<!-- Generator: Adobe Illustrator 24.1.2, SVG Export Plug-In . SVG Version: 6.00 Build 0)  -->
<svg version="1.1" id="Layer_1" xmlns="http://www.w3.org/2000/svg" xmlns:xlink="http://www.w3.org/1999/xlink" x="0px" y="0px"
	 viewBox="0 0 96 82.4" style="enable-background:new 0 0 96 82.4;" xml:space="preserve">
<path d="M2.5,55.6C11.9,76.5,29.1,66.3,46,82.4c0.8,0.8,2.3,0.8,3.1,0c16.5-15.9,33.1-5,42.9-25.4"/>
<g>
	<path d="M46.2,20.8c0.9-0.6,2.1-0.6,2.9,0L60,28.5l9.7-6.8c-3.2-10.4-11.8-17.2-22-17.2s-18.8,6.7-22,17.2l9.7,6.8L46.2,20.8z"/>
	<path d="M71.1,43V30.8c0-1.3-0.1-2.5-0.2-3.7l-9.3,6.6c-0.4,0.3-1,0.5-1.5,0.5s-1-0.2-1.5-0.5L47.7,26l-10.9,7.7
		c-0.9,0.6-2.1,0.6-2.9,0l-9.3-6.6c-0.1,1.2-0.2,2.4-0.2,3.7V43c7.7,1.7,15.5,2.6,23.4,2.6C55.6,45.5,63.4,44.7,71.1,43z"/>
	<path d="M91.2,42.3c-4.1,1.4-10.1,3.3-14.8,4.6c-4.3,1.1-8.6,2-13,2.6c-0.9,0.1-1.7,0.2-2.6,0.3c-0.5,0.1-0.9,0.1-1.4,0.2
		c-0.9,0.1-1.8,0.2-2.7,0.2c-0.4,0-0.8,0.1-1.3,0.1c-1,0.1-2,0.1-3,0.2c-0.3,0-0.6,0-0.9,0c-1.3,0-2.6,0.1-4,0.1c-1.3,0-2.6,0-4-0.1
		c-0.3,0-0.6,0-0.9,0c-1,0-2-0.1-3-0.2c-0.4,0-0.8-0.1-1.2-0.1c-0.9-0.1-1.8-0.2-2.7-0.3c-0.4,0-0.9-0.1-1.3-0.2
		c-0.9-0.1-1.7-0.2-2.6-0.3c-4.3-0.6-8.7-1.5-12.9-2.6l0,0c-4.7-1.3-10.8-3.2-14.8-4.6c-2.1-0.7-4.3,1-3.9,3.3
		c0.8,5.6,2.6,14.3,6,15.1L9,61.2c25.5,5.8,51.9,5.8,77.4,0l2.8-0.6c3.4-0.8,5.2-9.5,6-15.1C95.5,43.4,93.3,41.6,91.2,42.3z"/>
</g>
</svg>
