<?xml version="1.0" encoding="utf-8"?>
<!-- Generator: Adobe Illustrator 24.1.2, SVG Export Plug-In . SVG Version: 6.00 Build 0)  -->
<svg version="1.1" id="Isolation_Mode" xmlns="http://www.w3.org/2000/svg" xmlns:xlink="http://www.w3.org/1999/xlink" x="0px"
	 y="0px" viewBox="0 0 9.8 29.5" style="enable-background:new 0 0 9.8 29.5;" xml:space="preserve">
<path d="M0.6,24.3c1.9-1.2,3,4.7,3,4.7S-1.3,25.6,0.6,24.3z"/>
<path d="M0.6,18.5c1.9-1.2,3,4.7,3,4.7S-1.3,19.7,0.6,18.5z"/>
<path d="M0.6,12.7c1.9-1.2,3,4.7,3,4.7S-1.3,13.9,0.6,12.7z"/>
<path d="M0.6,6.8c1.9-1.2,3,4.7,3,4.7S-1.3,8,0.6,6.8z"/>
<path d="M0.6,1c1.9-1.2,3,4.7,3,4.7S-1.3,2.2,0.6,1z"/>
<path d="M5.3,0.8c0,17.4,0,11.8,0,28.6c0,0.5-0.7,0.5-0.7,0c0-16.8,0-11.2,0-28.6"/>
<path d="M6.3,29.1c0,0,1.1-6,3-4.7C11.2,25.6,6.3,29.1,6.3,29.1z"/>
<path d="M6.3,23.2c0,0,1.1-6,3-4.7C11.2,19.7,6.3,23.2,6.3,23.2z"/>
<path d="M6.3,17.4c0,0,1.1-6,3-4.7C11.2,13.9,6.3,17.4,6.3,17.4z"/>
<path d="M6.3,11.5c0,0,1.1-6,3-4.7C11.2,8,6.3,11.5,6.3,11.5z"/>
<path d="M6.3,5.7c0,0,1.1-6,3-4.7C11.2,2.2,6.3,5.7,6.3,5.7z"/>
</svg>
